<?xml version="1.0" encoding="UTF-8" standalone="no"?>
<svg
   xmlns:dc="http://purl.org/dc/elements/1.1/"
   xmlns:cc="http://creativecommons.org/ns#"
   xmlns:rdf="http://www.w3.org/1999/02/22-rdf-syntax-ns#"
   xmlns:svg="http://www.w3.org/2000/svg"
   xmlns="http://www.w3.org/2000/svg"
   xmlns:sodipodi="http://sodipodi.sourceforge.net/DTD/sodipodi-0.dtd"
   xmlns:inkscape="http://www.inkscape.org/namespaces/inkscape"
   enable-background="new 0 0 48 48"
   id="Layer_1"
   version="1.1"
   viewBox="0 0 48 48"
   xml:space="preserve"
   inkscape:version="0.48.4 r9939"
   width="100%"
   height="100%"
   sodipodi:docname="twitter.svg"><metadata
     id="metadata15"><rdf:RDF><cc:Work
         rdf:about=""><dc:format>image/svg+xml</dc:format><dc:type
           rdf:resource="http://purl.org/dc/dcmitype/StillImage" /><dc:title></dc:title></cc:Work></rdf:RDF></metadata><defs
     id="defs13" /><sodipodi:namedview
     pagecolor="#ffffff"
     bordercolor="#666666"
     borderopacity="1"
     objecttolerance="10"
     gridtolerance="10"
     guidetolerance="10"
     inkscape:pageopacity="0"
     inkscape:pageshadow="2"
     inkscape:window-width="1366"
     inkscape:window-height="713"
     id="namedview11"
     showgrid="false"
     inkscape:zoom="9.8333333"
     inkscape:cx="17.745931"
     inkscape:cy="25.476348"
     inkscape:window-x="0"
     inkscape:window-y="30"
     inkscape:window-maximized="1"
     inkscape:current-layer="Layer_1" /><path
     style="fill:#ffffff;opacity:0.7"
     d="M 24 0 C 10.745166 0 7.4559567e-17 10.745166 0 24 C 0 37.254834 10.745166 48 24 48 C 37.254834 48 48 37.254834 48 24 C 48 10.745166 37.254834 -7.0308678e-15 24 0 z M 25.90625 11.3125 L 29.8125 11.3125 L 29.8125 15.6875 L 27 15.6875 C 26.6 15.6875 25.90625 15.90625 25.90625 16.90625 L 25.90625 19.5 L 29.90625 19.5 L 29.5 24 L 25.90625 24 L 25.90625 36.6875 L 20.59375 36.6875 L 20.59375 24 L 18.09375 24 L 18.09375 19.5 L 20.59375 19.5 L 20.59375 16.59375 C 20.59375 14.59375 21.50625 11.3125 25.90625 11.3125 z "
     id="circle3960" /></svg>