<?xml version="1.0" encoding="UTF-8" standalone="no"?>
<svg
   xmlns:dc="http://purl.org/dc/elements/1.1/"
   xmlns:cc="http://creativecommons.org/ns#"
   xmlns:rdf="http://www.w3.org/1999/02/22-rdf-syntax-ns#"
   xmlns:svg="http://www.w3.org/2000/svg"
   xmlns="http://www.w3.org/2000/svg"
   xmlns:sodipodi="http://sodipodi.sourceforge.net/DTD/sodipodi-0.dtd"
   xmlns:inkscape="http://www.inkscape.org/namespaces/inkscape"
   enable-background="new 0 0 48 48"
   id="Layer_1"
   version="1.1"
   viewBox="0 0 48 48"
   xml:space="preserve"
   inkscape:version="0.48.4 r9939"
   width="100%"
   height="100%"
   sodipodi:docname="googleplus_color.svg"><metadata
     id="metadata15"><rdf:RDF><cc:Work
         rdf:about=""><dc:format>image/svg+xml</dc:format><dc:type
           rdf:resource="http://purl.org/dc/dcmitype/StillImage" /><dc:title></dc:title></cc:Work></rdf:RDF></metadata><defs
     id="defs13" /><sodipodi:namedview
     pagecolor="#ffffff"
     bordercolor="#666666"
     borderopacity="1"
     objecttolerance="10"
     gridtolerance="10"
     guidetolerance="10"
     inkscape:pageopacity="0"
     inkscape:pageshadow="2"
     inkscape:window-width="1366"
     inkscape:window-height="713"
     id="namedview11"
     showgrid="false"
     inkscape:zoom="9.8333333"
     inkscape:cx="17.745931"
     inkscape:cy="25.476348"
     inkscape:window-x="0"
     inkscape:window-y="30"
     inkscape:window-maximized="1"
     inkscape:current-layer="Layer_1" /><path
     d="M 24 0 C 10.745166 0 0 10.745166 0 24 C 0 37.254834 10.745166 48 24 48 C 37.254834 48 48 37.254834 48 24 C 48 10.745166 37.254834 -1.1842379e-14 24 0 z M 20.5 11.8125 L 28 11.8125 L 26.3125 13 L 23.90625 13 C 25.50625 13.7 26.3125 15.50625 26.3125 17.40625 C 26.3125 19.00625 25.3875 20.3125 24.1875 21.3125 C 22.9875 22.3125 22.8125 22.7 22.8125 23.5 C 22.8125 24.1 24.1125 25.3125 24.8125 25.8125 C 26.8125 27.2125 27.4125 28.5875 27.3125 30.6875 C 27.3125 33.3875 24.70625 36.09375 19.90625 36.09375 C 15.70625 36.09375 12.1875 34.3875 12.1875 31.6875 C 12.1875 28.9875 15.39375 26.3125 19.59375 26.3125 L 20.90625 26.3125 C 20.40625 25.7125 19.90625 24.9875 19.90625 24.1875 C 19.90625 23.6875 20.1125 23.2125 20.3125 22.8125 L 19.59375 22.8125 C 16.19375 22.8125 13.90625 20.3125 13.90625 17.3125 C 13.90625 14.4125 17.1 11.8125 20.5 11.8125 z M 19.5 13 C 17.6 12.9 16.29375 14.80625 16.59375 17.40625 C 16.89375 19.90625 18.7875 21.99375 20.6875 22.09375 C 22.6875 22.09375 23.99375 20.0875 23.59375 17.6875 C 23.29375 15.0875 21.4 13.1 19.5 13 z M 30.40625 19.40625 L 32.8125 19.40625 L 32.8125 22.3125 L 35.6875 22.3125 L 35.6875 24.59375 L 32.8125 24.59375 L 32.8125 27.59375 L 30.40625 27.59375 L 30.40625 24.59375 L 27.5 24.59375 L 27.5 22.3125 L 30.40625 22.3125 L 30.40625 19.40625 z M 20.5 27.09375 C 17.6 26.99375 15 28.8 15 31 C 15 33.2 17.1 35 20 35 C 24 35 25.5 33.1875 25.5 31.1875 C 25.5 30.8875 25.50625 30.70625 25.40625 30.40625 C 25.10625 29.10625 24.00625 28.50625 22.40625 27.40625 C 21.80625 27.20625 21.2 27.09375 20.5 27.09375 z "
     id="circle3"
     style="fill:#ffffff;opacity:0.7" /></svg>