<?xml version="1.0" encoding="UTF-8" standalone="no"?>
<svg
   xmlns:dc="http://purl.org/dc/elements/1.1/"
   xmlns:cc="http://creativecommons.org/ns#"
   xmlns:rdf="http://www.w3.org/1999/02/22-rdf-syntax-ns#"
   xmlns:svg="http://www.w3.org/2000/svg"
   xmlns="http://www.w3.org/2000/svg"
   xmlns:sodipodi="http://sodipodi.sourceforge.net/DTD/sodipodi-0.dtd"
   xmlns:inkscape="http://www.inkscape.org/namespaces/inkscape"
   enable-background="new 0 0 48 48"
   id="Layer_1"
   version="1.1"
   viewBox="0 0 48 48"
   xml:space="preserve"
   inkscape:version="0.48.4 r9939"
   width="100%"
   height="100%"
   sodipodi:docname="googleplus.svg"><metadata
     id="metadata15"><rdf:RDF><cc:Work
         rdf:about=""><dc:format>image/svg+xml</dc:format><dc:type
           rdf:resource="http://purl.org/dc/dcmitype/StillImage" /><dc:title></dc:title></cc:Work></rdf:RDF></metadata><defs
     id="defs13" /><sodipodi:namedview
     pagecolor="#ffffff"
     bordercolor="#666666"
     borderopacity="1"
     objecttolerance="10"
     gridtolerance="10"
     guidetolerance="10"
     inkscape:pageopacity="0"
     inkscape:pageshadow="2"
     inkscape:window-width="1366"
     inkscape:window-height="713"
     id="namedview11"
     showgrid="false"
     inkscape:zoom="9.8333333"
     inkscape:cx="17.745931"
     inkscape:cy="25.476348"
     inkscape:window-x="0"
     inkscape:window-y="30"
     inkscape:window-maximized="1"
     inkscape:current-layer="Layer_1" /><path
     style="fill:#ffffff;opacity:0.7"
     d="M 24 0 C 10.745166 0 7.4559567e-17 10.745166 0 24 C 0 37.254834 10.745166 48 24 48 C 37.254834 48 48 37.254834 48 24 C 48 10.745166 37.254834 -7.0308678e-15 24 0 z M 16.8125 12.3125 L 31.1875 12.3125 C 33.6875 12.3125 35.6875 14.3125 35.6875 16.8125 L 35.6875 21.59375 L 35.6875 31.1875 C 35.6875 33.6875 33.6875 35.6875 31.1875 35.6875 L 16.8125 35.6875 C 14.3125 35.6875 12.3125 33.6875 12.3125 31.1875 L 12.3125 21.59375 L 12.3125 16.8125 C 12.3125 14.3125 14.3125 12.3125 16.8125 12.3125 z M 29 15 L 29 19 L 33 19 L 33 15.5 L 33 15 L 32.5 15 L 29 15 z M 24 19.90625 C 22.7 19.90625 21.3875 20.59375 20.6875 21.59375 C 20.1875 22.29375 19.90625 23.1 19.90625 24 C 19.90625 26.3 21.8 28.09375 24 28.09375 C 26.2 28.09375 28.09375 26.3 28.09375 24 C 28.09375 23.1 27.8125 22.29375 27.3125 21.59375 C 26.6125 20.59375 25.3 19.90625 24 19.90625 z M 14.59375 21.59375 L 14.59375 31.1875 C 14.59375 32.3875 15.6125 33.40625 16.8125 33.40625 L 31.1875 33.40625 C 32.3875 33.40625 33.40625 32.3875 33.40625 31.1875 L 33.40625 21.59375 L 29.90625 21.59375 C 30.20625 22.29375 30.40625 23.2 30.40625 24 C 30.40625 27.5 27.5 30.40625 24 30.40625 C 20.5 30.40625 17.59375 27.5 17.59375 24 C 17.59375 23.2 17.79375 22.29375 18.09375 21.59375 L 14.59375 21.59375 z "
     id="circle3824" /></svg>