<?xml version="1.0" encoding="UTF-8" standalone="no"?>
<svg
   xmlns:dc="http://purl.org/dc/elements/1.1/"
   xmlns:cc="http://creativecommons.org/ns#"
   xmlns:rdf="http://www.w3.org/1999/02/22-rdf-syntax-ns#"
   xmlns:svg="http://www.w3.org/2000/svg"
   xmlns="http://www.w3.org/2000/svg"
   xmlns:sodipodi="http://sodipodi.sourceforge.net/DTD/sodipodi-0.dtd"
   xmlns:inkscape="http://www.inkscape.org/namespaces/inkscape"
   enable-background="new 0 0 48 48"
   id="Layer_1"
   version="1.1"
   viewBox="0 0 48 48"
   xml:space="preserve"
   inkscape:version="0.48.4 r9939"
   width="100%"
   height="100%"
   sodipodi:docname="instagram.svg"><metadata
     id="metadata15"><rdf:RDF><cc:Work
         rdf:about=""><dc:format>image/svg+xml</dc:format><dc:type
           rdf:resource="http://purl.org/dc/dcmitype/StillImage" /><dc:title></dc:title></cc:Work></rdf:RDF></metadata><defs
     id="defs13" /><sodipodi:namedview
     pagecolor="#ffffff"
     bordercolor="#666666"
     borderopacity="1"
     objecttolerance="10"
     gridtolerance="10"
     guidetolerance="10"
     inkscape:pageopacity="0"
     inkscape:pageshadow="2"
     inkscape:window-width="1366"
     inkscape:window-height="713"
     id="namedview11"
     showgrid="false"
     inkscape:zoom="9.8333333"
     inkscape:cx="17.745931"
     inkscape:cy="25.476348"
     inkscape:window-x="0"
     inkscape:window-y="30"
     inkscape:window-maximized="1"
     inkscape:current-layer="Layer_1" /><path
     style="fill:#ffffff;opacity:0.7"
     d="M 24 0 C 10.745166 0 7.4559567e-17 10.745166 0 24 C 0 37.254834 10.745166 48 24 48 C 37.254834 48 48 37.254834 48 24 C 48 10.745166 37.254834 -7.0308678e-15 24 0 z M 28.90625 12.8125 C 30.40625 12.8125 31.6875 13.49375 32.6875 14.59375 C 33.9875 14.29375 35.09375 13.7875 36.09375 13.1875 C 35.69375 14.4875 34.9125 15.6125 33.8125 16.3125 C 34.8125 16.2125 35.9125 15.90625 36.8125 15.40625 C 36.1125 16.60625 35.2 17.59375 34 18.59375 L 34 19.3125 C 34 26.8125 28.7 35.40625 19 35.40625 C 16 35.40625 13.20625 34.4125 10.90625 32.8125 C 11.40625 32.9125 11.7875 32.90625 12.1875 32.90625 C 14.5875 32.90625 16.8875 32 18.6875 30.5 C 16.3875 30.5 14.5125 28.89375 13.8125 26.59375 C 14.1125 26.69375 14.5125 26.6875 14.8125 26.6875 C 15.3125 26.6875 15.7875 26.6 16.1875 26.5 C 13.7875 25.9 12 23.60625 12 20.90625 L 12 20.8125 C 12.7 21.2125 13.50625 21.5 14.40625 21.5 C 13.00625 20.5 12.09375 18.8125 12.09375 16.8125 C 12.09375 15.7125 12.3125 14.70625 12.8125 13.90625 C 15.4125 17.30625 19.2875 19.6125 23.6875 19.8125 C 23.5875 19.4125 23.59375 18.9 23.59375 18.5 C 23.59375 15.3 26.00625 12.8125 28.90625 12.8125 z "
     id="circle3897" /></svg>